# Max2Obj Version 4.0 Mar 10th, 2001
#
# object Text01 to come ...
#
v  262.140961 0.000000 133.928848
v  263.764221 0.000000 129.445618
v  265.436890 0.000000 133.928833
v  289.039215 0.000000 137.155609
v  289.039215 0.000000 139.595917
v  288.779755 0.000000 139.786636
v  288.506042 0.000000 139.969070
v  288.218109 0.000000 140.143204
v  287.915894 0.000000 140.309036
v  287.599426 0.000000 140.466583
v  287.268707 0.000000 140.615829
v  286.923737 0.000000 140.756790
v  286.571777 0.000000 140.883820
v  286.220032 0.000000 140.991318
v  285.868561 0.000000 141.079254
v  285.517334 0.000000 141.147659
v  285.166351 0.000000 141.196518
v  284.815613 0.000000 141.225845
v  284.465149 0.000000 141.235611
v  283.776550 0.000000 141.200653
v  283.126709 0.000000 141.095749
v  282.515564 0.000000 140.920929
v  281.943146 0.000000 140.676178
v  281.409454 0.000000 140.361496
v  280.914520 0.000000 139.976868
v  280.458282 0.000000 139.522324
v  280.231781 0.000000 139.248199
v  280.023407 0.000000 138.953751
v  279.833191 0.000000 138.638962
v  279.661133 0.000000 138.303833
v  279.507233 0.000000 137.948364
v  279.371460 0.000000 137.572571
v  279.253845 0.000000 137.176453
v  300.229218 0.000000 133.927277
v  300.229218 0.000000 124.975609
v  296.359222 0.000000 124.975609
v  296.359222 0.000000 133.927277
v  278.936981 0.000000 133.934280
v  278.992096 0.000000 133.148911
v  279.100159 0.000000 132.418488
v  279.261169 0.000000 131.742996
v  279.475128 0.000000 131.122452
v  279.742004 0.000000 130.556854
v  280.061829 0.000000 130.046173
v  280.434601 0.000000 129.590454
v  280.886047 0.000000 129.162033
v  281.380127 0.000000 128.799515
v  281.916870 0.000000 128.502899
v  282.496307 0.000000 128.272217
v  283.118347 0.000000 128.107437
v  283.783081 0.000000 128.008560
v  284.490448 0.000000 127.975609
v  284.959869 0.000000 127.992355
v  285.406464 0.000000 128.042618
v  285.830292 0.000000 128.126373
v  286.231293 0.000000 128.243622
v  286.609528 0.000000 128.394379
v  286.964935 0.000000 128.578629
v  287.297577 0.000000 128.796387
v  287.604156 0.000000 129.043091
v  287.881500 0.000000 129.314194
v  288.129578 0.000000 129.609695
v  288.348358 0.000000 129.929581
v  288.537903 0.000000 130.273865
v  288.698181 0.000000 130.642548
v  288.829193 0.000000 131.035614
v  292.669220 0.000000 130.315613
v  292.475037 0.000000 129.579865
v  292.222260 0.000000 128.891083
v  291.910858 0.000000 128.249298
v  291.540833 0.000000 127.654488
v  291.112213 0.000000 127.106659
v  290.624969 0.000000 126.605804
v  290.079132 0.000000 126.151939
v  289.471985 0.000000 125.752304
v  288.800903 0.000000 125.414146
v  288.065887 0.000000 125.137474
v  287.266907 0.000000 124.922287
v  286.403961 0.000000 124.768578
v  285.477081 0.000000 124.676353
v  284.486237 0.000000 124.645615
v  283.717865 0.000000 124.665184
v  282.986420 0.000000 124.723900
v  282.291901 0.000000 124.821762
v  281.634338 0.000000 124.958771
v  281.013672 0.000000 125.134933
v  280.429932 0.000000 125.350227
v  279.883118 0.000000 125.604675
v  279.213715 0.000000 125.983582
v  278.591980 0.000000 126.407013
v  278.017883 0.000000 126.874977
v  277.491455 0.000000 127.387451
v  277.012665 0.000000 127.944458
v  276.581512 0.000000 128.545975
v  276.198029 0.000000 129.192017
v  275.896576 0.000000 129.801407
v  275.636322 0.000000 130.432724
v  275.417236 0.000000 131.085953
v  275.239380 0.000000 131.761108
v  275.102722 0.000000 132.458191
v  275.007233 0.000000 133.177200
v  274.952972 0.000000 133.918121
v  269.453674 0.000000 133.921982
v  265.882019 0.000000 124.975609
v  261.678741 0.000000 124.975609
v  258.232788 0.000000 133.918930
v  248.319977 0.000000 133.925171
v  248.319977 0.000000 137.168915
v  256.981750 0.000000 137.165771
v  254.269211 0.000000 144.205612
v  258.419525 0.000000 144.205612
v  260.005768 0.000000 139.825607
v  267.682953 0.000000 139.825607
v  269.337189 0.000000 144.205612
v  273.559204 0.000000 144.205612
v  270.754059 0.000000 137.179214
v  275.213684 0.000000 137.175690
v  275.300079 0.000000 137.545197
v  275.398285 0.000000 137.910370
v  275.508301 0.000000 138.271194
v  275.630096 0.000000 138.627686
v  275.763702 0.000000 138.979858
v  275.909119 0.000000 139.327667
v  276.066315 0.000000 139.671158
v  276.411102 0.000000 140.322769
v  276.801361 0.000000 140.929855
v  277.237091 0.000000 141.492432
v  277.718353 0.000000 142.010513
v  278.245056 0.000000 142.484070
v  278.817291 0.000000 142.913116
v  279.434998 0.000000 143.297638
v  280.091217 0.000000 143.634048
v  280.778992 0.000000 143.918686
v  281.498291 0.000000 144.151581
v  282.249176 0.000000 144.332718
v  283.031586 0.000000 144.462097
v  283.845551 0.000000 144.539734
v  284.691071 0.000000 144.565613
v  285.367706 0.000000 144.547211
v  286.041901 0.000000 144.492004
v  286.713715 0.000000 144.400009
v  287.383118 0.000000 144.271194
v  288.050140 0.000000 144.105591
v  288.714722 0.000000 143.903183
v  289.376953 0.000000 143.663971
v  290.015594 0.000000 143.400589
v  290.609589 0.000000 143.125656
v  291.158875 0.000000 142.839172
v  291.663483 0.000000 142.541153
v  292.123413 0.000000 142.231583
v  292.538635 0.000000 141.910461
v  292.909210 0.000000 141.577805
v  292.909210 0.000000 137.179947
v  296.359222 0.000000 137.164688
v  296.359222 0.000000 144.205612
v  300.229218 0.000000 144.205612
v  300.229218 0.000000 137.180313
v  308.206390 0.000000 137.168915
v  308.206390 0.000000 133.925171
# 159 vertices

vn  0.000000 1.000000 -0.000000
vn  0.000000 1.000000 -0.000000
vn  0.000000 1.000000 -0.000000
vn  0.000000 1.000000 -0.000000
vn  0.000000 1.000000 -0.000000
vn  0.000000 1.000000 -0.000000
vn  0.000000 1.000000 -0.000000
vn  0.000000 1.000000 -0.000000
vn  0.000000 1.000000 -0.000000
vn  0.000000 1.000000 -0.000000
vn  0.000000 1.000000 -0.000000
vn  0.000000 1.000000 -0.000000
vn  0.000000 1.000000 -0.000000
vn  0.000000 1.000000 -0.000000
vn  0.000000 1.000000 -0.000000
vn  0.000000 1.000000 -0.000000
vn  0.000000 1.000000 -0.000000
vn  0.000000 1.000000 -0.000000
vn  0.000000 1.000000 -0.000000
vn  0.000000 1.000000 -0.000000
vn  0.000000 1.000000 -0.000000
vn  0.000000 1.000000 -0.000000
vn  0.000000 1.000000 -0.000000
vn  0.000000 1.000000 -0.000000
vn  0.000000 1.000000 -0.000000
vn  0.000000 1.000000 -0.000000
vn  0.000000 1.000000 -0.000000
vn  0.000000 1.000000 -0.000000
vn  0.000000 1.000000 -0.000000
vn  0.000000 1.000000 -0.000000
vn  0.000000 1.000000 -0.000000
vn  0.000000 1.000000 -0.000000
vn  0.000000 1.000000 -0.000000
vn  0.000000 1.000000 -0.000000
vn  0.000000 1.000000 -0.000000
vn  0.000000 1.000000 -0.000000
vn  0.000000 1.000000 -0.000000
vn  0.000000 1.000000 -0.000000
vn  0.000000 1.000000 -0.000000
vn  0.000000 1.000000 -0.000000
vn  0.000000 1.000000 -0.000000
vn  0.000000 1.000000 -0.000000
vn  0.000000 1.000000 -0.000000
vn  0.000000 1.000000 -0.000000
vn  0.000000 1.000000 -0.000000
vn  0.000000 1.000000 -0.000000
vn  0.000000 1.000000 -0.000000
vn  0.000000 1.000000 -0.000000
vn  0.000000 1.000000 -0.000000
vn  0.000000 1.000000 -0.000000
vn  0.000000 1.000000 -0.000000
vn  0.000000 1.000000 -0.000000
vn  0.000000 1.000000 -0.000000
vn  0.000000 1.000000 -0.000000
vn  0.000000 1.000000 -0.000000
vn  0.000000 1.000000 -0.000000
vn  0.000000 1.000000 -0.000000
vn  0.000000 1.000000 -0.000000
vn  0.000000 1.000000 -0.000000
vn  0.000000 1.000000 -0.000000
vn  0.000000 1.000000 -0.000000
vn  0.000000 1.000000 -0.000000
vn  0.000000 1.000000 -0.000000
vn  0.000000 1.000000 -0.000000
vn  0.000000 1.000000 -0.000000
vn  0.000000 1.000000 -0.000000
vn  0.000000 1.000000 -0.000000
vn  0.000000 1.000000 -0.000000
vn  0.000000 1.000000 -0.000000
vn  0.000000 1.000000 -0.000000
vn  0.000000 1.000000 -0.000000
vn  0.000000 1.000000 -0.000000
vn  0.000000 1.000000 -0.000000
vn  0.000000 1.000000 -0.000000
vn  0.000000 1.000000 -0.000000
vn  0.000000 1.000000 -0.000000
vn  0.000000 1.000000 -0.000000
vn  0.000000 1.000000 -0.000000
vn  0.000000 1.000000 -0.000000
vn  0.000000 1.000000 -0.000000
vn  0.000000 1.000000 -0.000000
vn  0.000000 1.000000 -0.000000
vn  0.000000 1.000000 -0.000000
vn  0.000000 1.000000 -0.000000
vn  0.000000 1.000000 -0.000000
vn  0.000000 1.000000 -0.000000
vn  0.000000 1.000000 -0.000000
vn  0.000000 1.000000 -0.000000
vn  0.000000 1.000000 -0.000000
vn  0.000000 1.000000 -0.000000
vn  0.000000 1.000000 -0.000000
vn  0.000000 1.000000 -0.000000
vn  0.000000 1.000000 -0.000000
vn  0.000000 1.000000 -0.000000
vn  0.000000 1.000000 -0.000000
vn  0.000000 1.000000 -0.000000
vn  0.000000 1.000000 -0.000000
vn  0.000000 1.000000 -0.000000
vn  0.000000 1.000000 -0.000000
vn  0.000000 1.000000 -0.000000
vn  0.000000 1.000000 -0.000000
vn  0.000000 1.000000 -0.000000
vn  0.000000 1.000000 -0.000000
vn  0.000000 1.000000 -0.000000
vn  0.000000 1.000000 -0.000000
vn  0.000000 1.000000 -0.000000
vn  0.000000 1.000000 -0.000000
vn  0.000000 1.000000 -0.000000
vn  0.000000 1.000000 -0.000000
vn  0.000000 1.000000 -0.000000
vn  0.000000 1.000000 -0.000000
vn  0.000000 1.000000 -0.000000
vn  0.000000 1.000000 -0.000000
vn  0.000000 1.000000 -0.000000
vn  0.000000 1.000000 -0.000000
vn  0.000000 1.000000 -0.000000
vn  0.000000 1.000000 -0.000000
vn  0.000000 1.000000 -0.000000
vn  0.000000 1.000000 -0.000000
vn  0.000000 1.000000 -0.000000
vn  0.000000 1.000000 -0.000000
vn  0.000000 1.000000 -0.000000
vn  0.000000 1.000000 -0.000000
vn  0.000000 1.000000 -0.000000
vn  0.000000 1.000000 -0.000000
vn  0.000000 1.000000 -0.000000
vn  0.000000 1.000000 -0.000000
vn  0.000000 1.000000 -0.000000
vn  0.000000 1.000000 -0.000000
vn  0.000000 1.000000 -0.000000
vn  0.000000 1.000000 -0.000000
vn  0.000000 1.000000 -0.000000
vn  0.000000 1.000000 -0.000000
vn  0.000000 1.000000 -0.000000
vn  0.000000 1.000000 -0.000000
vn  0.000000 1.000000 -0.000000
vn  0.000000 1.000000 -0.000000
vn  0.000000 1.000000 -0.000000
vn  0.000000 1.000000 -0.000000
vn  0.000000 1.000000 -0.000000
vn  0.000000 1.000000 -0.000000
vn  0.000000 1.000000 -0.000000
vn  0.000000 1.000000 -0.000000
vn  0.000000 1.000000 -0.000000
vn  0.000000 1.000000 -0.000000
vn  0.000000 1.000000 -0.000000
vn  0.000000 1.000000 -0.000000
vn  0.000000 1.000000 -0.000000
vn  0.000000 1.000000 -0.000000
vn  0.000000 1.000000 -0.000000
vn  0.000000 1.000000 -0.000000
vn  0.000000 1.000000 -0.000000
vn  0.000000 1.000000 -0.000000
vn  0.000000 1.000000 -0.000000
vn  0.000000 1.000000 -0.000000
vn  0.000000 1.000000 -0.000000
vn  0.000000 1.000000 -0.000000
vn  0.000000 1.000000 -0.000000
vn  0.000000 1.000000 -0.000000
# 159 vertex normals

g Text01
s 1
f 2//2 103//103 104//104
f 103//103 2//2 3//3
f 2//2 104//104 105//105
f 2//2 105//105 106//106
f 1//1 2//2 106//106
f 114//114 115//115 116//116
f 113//113 114//114 116//116
f 109//109 110//110 111//111
f 109//109 111//111 112//112
f 66//66 67//67 68//68
f 65//65 66//66 68//68
f 65//65 68//68 69//69
f 64//64 65//65 69//69
f 64//64 69//69 70//70
f 63//63 64//64 70//70
f 63//63 70//70 71//71
f 63//63 71//71 72//72
f 62//62 63//63 72//72
f 62//62 72//72 73//73
f 61//61 62//62 73//73
f 61//61 73//73 74//74
f 60//60 61//61 74//74
f 60//60 74//74 75//75
f 59//59 60//60 75//75
f 59//59 75//75 76//76
f 58//58 59//59 76//76
f 58//58 76//76 77//77
f 57//57 58//58 77//77
f 57//57 77//77 78//78
f 56//56 57//57 78//78
f 56//56 78//78 79//79
f 55//55 56//56 79//79
f 55//55 79//79 80//80
f 54//54 55//55 80//80
f 53//53 54//54 80//80
f 53//53 80//80 81//81
f 52//52 53//53 81//81
f 52//52 81//81 82//82
f 51//51 52//52 82//82
f 51//51 82//82 83//83
f 50//50 51//51 83//83
f 50//50 83//83 84//84
f 107//107 108//108 109//109
f 106//106 107//107 109//109
f 158//158 159//159 34//34
f 157//157 158//158 34//34
f 155//155 156//156 157//157
f 154//154 155//155 157//157
f 154//154 157//157 34//34
f 154//154 34//34 4//4
f 153//153 154//154 4//4
f 153//153 4//4 5//5
f 152//152 153//153 5//5
f 151//151 152//152 5//5
f 150//150 151//151 5//5
f 149//149 150//150 5//5
f 148//148 149//149 5//5
f 147//147 148//148 5//5
f 147//147 5//5 6//6
f 147//147 6//6 7//7
f 146//146 147//147 7//7
f 146//146 7//7 8//8
f 145//145 146//146 8//8
f 145//145 8//8 9//9
f 144//144 145//145 9//9
f 144//144 9//9 10//10
f 144//144 10//10 11//11
f 143//143 144//144 11//11
f 143//143 11//11 12//12
f 142//142 143//143 12//12
f 142//142 12//12 13//13
f 142//142 13//13 14//14
f 141//141 142//142 14//14
f 141//141 14//14 15//15
f 140//140 141//141 15//15
f 140//140 15//15 16//16
f 139//139 140//140 16//16
f 139//139 16//16 17//17
f 138//138 139//139 17//17
f 138//138 17//17 18//18
f 138//138 18//18 19//19
f 137//137 138//138 19//19
f 137//137 19//19 20//20
f 136//136 137//137 20//20
f 136//136 20//20 21//21
f 135//135 136//136 21//21
f 35//35 36//36 37//37
f 34//34 35//35 37//37
f 4//4 34//34 37//37
f 4//4 37//37 38//38
f 33//33 4//4 38//38
f 49//49 50//50 84//84
f 49//49 84//84 85//85
f 49//49 85//85 86//86
f 48//48 49//49 86//86
f 48//48 86//86 87//87
f 48//48 87//87 88//88
f 47//47 48//48 88//88
f 47//47 88//88 89//89
f 46//46 47//47 89//89
f 46//46 89//89 90//90
f 46//46 90//90 91//91
f 45//45 46//46 91//91
f 45//45 91//91 92//92
f 44//44 45//45 92//92
f 44//44 92//92 93//93
f 135//135 21//21 22//22
f 134//134 135//135 22//22
f 133//133 134//134 22//22
f 133//133 22//22 23//23
f 132//132 133//133 23//23
f 132//132 23//23 24//24
f 131//131 132//132 24//24
f 44//44 93//93 94//94
f 43//43 44//44 94//94
f 43//43 94//94 95//95
f 42//42 43//43 95//95
f 42//42 95//95 96//96
f 41//41 42//42 96//96
f 41//41 96//96 97//97
f 41//41 97//97 98//98
f 40//40 41//41 98//98
f 40//40 98//98 99//99
f 39//39 40//40 99//99
f 39//39 99//99 100//100
f 39//39 100//100 101//101
f 38//38 39//39 101//101
f 38//38 101//101 102//102
f 130//130 131//131 24//24
f 130//130 24//24 25//25
f 129//129 130//130 25//25
f 129//129 25//25 26//26
f 128//128 129//129 26//26
f 127//127 128//128 26//26
f 127//127 26//26 27//27
f 126//126 127//127 27//27
f 126//126 27//27 28//28
f 126//126 28//28 29//29
f 125//125 126//126 29//29
f 125//125 29//29 30//30
f 124//124 125//125 30//30
f 124//124 30//30 31//31
f 123//123 124//124 31//31
f 123//123 31//31 32//32
f 122//122 123//123 32//32
f 121//121 122//122 32//32
f 121//121 32//32 33//33
f 120//120 121//121 33//33
f 119//119 120//120 33//33
f 118//118 119//119 33//33
f 118//118 33//33 38//38
f 118//118 38//38 102//102
f 117//117 118//118 102//102
f 116//116 117//117 102//102
f 116//116 102//102 103//103
f 113//113 116//116 103//103
f 113//113 103//103 3//3
f 112//112 113//113 3//3
f 112//112 3//3 1//1
f 109//109 112//112 1//1
f 109//109 1//1 106//106
# 161 faces

g
